<svg xmlns="http://www.w3.org/2000/svg" viewBox="0 0 194.84 176.78">
  <defs>
    <style>
      .cls-1,.cls-8{fill:none}.cls-2{fill:#71cbba}.cls-3{clip-path:url(#clip-path)}.cls-4{fill:#c8c8c9}.cls-5{fill:#a03058}.cls-6{fill:#ff7b97}.cls-7{fill:#c3002f}.cls-8{stroke:#c3002f;stroke-linejoin:round;stroke-width:1.57px}.cls-9{fill:#231f20}
    </style>
    <clipPath id="clip-path">
      <circle class="cls-1" cx="73.18" cy="73.18" r="73.18"/>
    </clipPath>
  </defs>
  <title>
    Asset 1
  </title>
  <g id="Layer_2" data-name="Layer 2">
    <g id="Layer_1-2" data-name="Layer 1">
      <circle class="cls-2" cx="73.18" cy="73.18" r="73.18"/>
      <path class="cls-3 cls-4" d="M29.11 112.66l113.72 64.12 52.01-94.65L81.11 18 61.95 82.32l-32.84 30.34z"/>
      <path class="cls-5" d="M90.58 78.39l-.47 12.66-10-4.48-6.71 6.25-6.81-6.35-10.35 4.58-.46-12.5c-15.69 5.72-26.68 18.83-26.68 34.1h88.58c.01-15.41-11.18-28.65-27.1-34.26z"/>
      <path class="cls-6" d="M61.95 88.5L73.4 99.17 84.64 88.6l-4.53-2.02-6.71 6.24-6.82-6.35-4.63 2.03z"/>
      <path class="cls-2" d="M66.57 86.43l6.81 6.35 6.71-6.25 10 4.48.47-12.66a52.26 52.26 0 0 0-34.79.16l.46 12.5z"/>
      <ellipse class="cls-7" cx="73.18" cy="50.41" rx="23.57" ry="34.41"/>
      <path class="cls-7" d="M50.06 57.15c-2.55 0-4.61-3-4.61-6.73s2.07-6.73 4.61-6.73zm46.24 0c2.55 0 4.61-3 4.61-6.73s-2.07-6.73-4.61-6.73z"/>
      <path class="cls-9" d="M67.89 26.75c5.94 11 15.62 17.55 25 15.7a16.43 16.43 0 0 0 3.11-.93C93.27 26.83 84.09 16 73.18 16 62.8 16 54 25.8 50.84 39.4c6.88-.52 12.97-5.34 17.05-12.65z"/>
    </g>
  </g>
</svg>