<svg class="wufoo-ad" xmlns="http://www.w3.org/2000/svg" viewBox="0 0 400 400">
  <path fill="#D03E27" d="M0 0h400v400H0z"/>
  <g fill="#F4F4F4">
    <path class="wufoo-letter" d="M60.858 129.642L30.163 60.58l20.81-4.05 9.402 26.002c2.916 8.116 6.08 17.52 8.7 24.69l.216-.04c-.513-8.36-.702-17.343-.805-26.452l-.565-27.5 20.703-4.03 9.933 27.013c2.895 8.01 5.3 15.223 7.852 23.188l.215-.04c-.493-8.255-.875-17.087-1.237-25.812l-.886-27.435 19.63-3.82-3.737 75.764-21.132 4.112-10.337-27.38c-2.304-6.12-4.585-12.69-7.22-21.084l-.215.04c.49 8.813.84 15.76.806 22.445l.02 29.277-21.456 4.175zM148.403 62.895l-5.803 41.33c-1.55 11.037 1.356 17.844 9.04 18.922 7.79 1.095 12.38-4.108 14.006-15.686l5.803-41.33 19.582 2.75-5.65 40.25c-3.16 22.505-16.008 32.285-36.457 29.414-20.016-2.81-28.977-15.21-25.68-38.69l5.575-39.707 19.583 2.748z"/>
    <path class="wufoo-letter" d="M186.19 51.906l47.134-3.928 1.333 16.002-27.43 2.286 1.133 13.607 25.8-2.15 1.323 15.893-25.8 2.15 2.324 27.866-19.704 1.642-6.114-73.368zM307.834 96.642c0 23.716-14.208 38.8-36.94 38.8-22.843 0-35.41-17.16-35.41-37.598 0-21.42 14.098-38.47 36.612-38.47 23.716 0 35.738 17.595 35.738 37.268zm-51.476.875c0 13.77 6.01 22.295 15.52 22.295s15.08-9.29 15.08-22.515c0-12.677-5.682-22.294-15.19-22.294-9.4 0-15.41 8.96-15.41 22.514z"/>
    <path class="wufoo-letter" d="M369.837 78.776c0 23.717-14.207 38.8-36.94 38.8-22.842 0-35.41-17.16-35.41-37.598 0-21.42 14.1-38.47 36.613-38.47 23.715 0 35.737 17.596 35.737 37.268zm-51.476.874c0 13.77 6.012 22.296 15.52 22.296 9.51 0 15.082-9.29 15.082-22.514 0-12.68-5.682-22.296-15.19-22.296-9.4 0-15.41 8.962-15.41 22.514z"/>
  </g>
  <path fill="#4A5E35" d="M121.114 416.11c-6.603-11.57-8.64-25.923-17.923-35.803.428-1.214 1.326-1.613 1.85-2.5-3.47-.712-6.31-3.78-8.57-6.27 7.92-16.374 6.732-39.258 15.58-54.66 13.227-7.046 24.937-16.51 36.85-25.693-.434-13.547 3.465-32.613 16.296-34.757 1.675 2.633 4.07 2.574 6.888 4.61 3.792 2.66 5.653 8.506 9.023 9.714 3.37 1.204 10.036 1.22 14.697 1.846 12.564 1.575 23.46 2.616 33.636 1.754 9.146-5.25 17.943-10.94 29.705-11.82 4.59 1.668 6.248 5.176 9.104 7.628 7.94 6.883 20.586 10.13 27.538 16.658 7.113 6.695 12.383 21.377 14.84 30.92 4.27 15.878 10.043 31.3 13.895 45.728 1.706 6.466-.115 12.185-1.912 20.15-1.86 8.71-1.27 18.205-3.443 26.91-6.59 25.883-25.127 35.343-39.06 54.147l-158.993-48.56z"/>
  <path fill="#90B952" d="M290.13 322.905c10.485 5.89-2.87 17.7-4.642 26.226 1.737-1.44 2.7-4.116 5.212-4.266-4.25 11.587-5.104 29.657-7.288 42.863 6.723-2.503 13.347-9.177 14.013-18.11-2.237.994-1.67 6.493-4.81 5.98.692-15.595 1.797-35.23 5.877-52.813 1.51-6.183.995-10.27-1.906-14.754-3.327 2.987-4.05 10.352-6.456 14.875zM283.365 314.15c5.53-8 7.066-19.73 4.197-26.33-2.775-.94-3.81-2.85-6.697-3.7-6.742 10.873-3.513 26.058 2.5 30.03zM265.227 284.58c1.253 1.633 2.665-.17 4.463.636.826-3.252 3.99-2.69 5.39-4.997-4.176-.07-5.816 4.167-9.853 4.36zM268.87 288.812c-1.128.626-3.435-.77-3.966.738 1.495.79 2.5 1.837 4.458 2.332-.297-1.694 1.288-2.47-.49-3.07zM266.053 274.255c-1.055 3.68-3.786 4.572-5.53 7.095 4.056.01 8.253.107 10.105-3.46-1.523-1.2-3.103-2.424-4.575-3.635zM256.455 279.084c3.988.083 5.986-3.026 7.558-6.98-1.996-.32-1.833-2.01-4.07-2.258-.98 2.328-2.14 6.142-3.488 9.238zM253.07 270.308c.395 2.126-1.04 5.415.97 6.55.915-1.426 3.167-5.504 1.75-7.184-.746.558-2.11-.03-2.72.634zM244.215 274.084c-.257 1.875.623 3.006.543 4.788 1.495.178 2.812.15 3.884-.354-.32-2.047 3.018-5.956 1.297-7.294-1.668 1.317-3.618 2.266-5.725 2.86z"/>
  <path fill="#F9AA2B" d="M239.62 300.29c-4.935.585-10.835 3.85-4.886 8.1 2.4-1.75 6.685-4.34 4.885-8.1z"/>
  <path fill="#90B952" d="M237.814 278.016c.604 1.85.957 3.893 2.064 5.518 3.17-2.667 1.387-11.416-2.064-5.518zM231.45 283.638c1.537 1.706 1.606 4.438 2.65 6.51 1.858-2.603 2.44-7.1.634-9.942-.71 1.718-2.45 1.928-3.283 3.432zM225.78 287.75c.136 2.775 2.397 5.918 1.448 8.348 3.792-.636 4.514-9.375 1.742-10.97-.848 1.96-1.375 1.767-3.19 2.622zM223.24 298.473c1.05-3.372 1.383-6.244-.157-8-2.794 1.488-.108 5.318.156 8zM212.848 299.77c1.28 2.04 1.67 4.637 2.525 6.92 2.822-1.854 3.828-5.816 2.455-10.345-2.068.425-3.633 1.753-4.98 3.426zM209.743 310.78c2.414-2.633 2.468-7.465.622-9.53-.424 1.058-.455 1.122-1.965 1.21-.746 3.517-2.628 7.772 1.343 8.32zM201.48 313.9c1.88.1 3.346-.43 3.926-2.42-.48-1.326-1.552-2.256-2.062-3.47-2.397.932-2.527 3.545-1.865 5.89zM153.882 281.04c.526 1.93-1.923 4.023-.525 5.76 1.09-1.84 4.498-2.857 4.158-5.3-.595.862-3.052.384-3.633-.46z"/>
  <path fill="#90B952" d="M113.503 368.89c.354-1.244-.734-1.604-.16-2.974-1.94-.597-2.104 1.71-4.355.654-1.69-8.312 3.707-17.967 7.287-25.196 2.4 3.575 3.12 9.846 3.486 13.475 2.697.852 4.93.942 7.31 1.34 15.62-5.213 39.02 5.68 49.21 15.515.386 1.515-2.33 1.485-.472 2.002 14.327 11.192 35.048 11.232 46.728 1.516 9.15-9.29 17.59-17.8 30.26-24.675 9.725-5.336 28.557-1.238 31.458-17.256-8.617-8.77-22.028-14.528-18.743-30.612 2.026-1.328 1.977-5.417 3.177-8.014-1.984-.42-3.104-1.495-5.426-1.712-.43 4.038.263 15.708-5.756 15.004.368-4.834.73-12.02-.53-16.99-10.675-.502-1.117 12.098-4.198 15.835-2.633-.83-1.658-3.976-4.818-4.527.306 11.734-16.274 16.192-21.138 5.89-2.01 7.32 7.777 6.99 9.686 10.313-2.836 2.157-7.73 1.45-11.39 3.563-2.446-3.697-1.458-9.46-2.494-14.03-5.33 2.045-10.458 5.466-15.03 4.81-3.223 3.153-14.26 10.298-18.333 9.893-2.814-.257-6.75-2.76-5.315-5.896 1.722-3.643 14.433-2.873 14.693-8.652-.128-1.96-2.876-2.345-2.685-4.45 3.395-4.956 10.554-8.94 10.24-16.48-7.047-4.452-14.25-3.43-22.09-6.086-10.5-3.584-11.84-13.45-19.63-18.175-.297.045-.786-.19-.913.198 1.074 2.515 1.793 5.312 2.316 8.155.682-.888 1.873-2.72 2.853-1.446.768 2.82-3.813 3.245-2.81 6.452 1.873.208 2.388-3.03 4.43-1.04-.742 3.99-4.85 5.387-5.28 7.983 2.216-.11 2.85-2.728 5.227-2.48.213 5.318-5.668 5.38-8.263 8.083.104 1.095 2.75-.54 2.243 1.377-.77 3.89-5.174 3.43-7.9 4.832-10.16 5.12-19.77 13.346-29.14 19.945 4.927 2.543.022 13.37-4.936 10.12.256-2.186 2.313-2.65 2.38-6.52-3.158-.236-4.27 2.938-7.435 2.848-2.922 17.518-9.527 36.02-12.055 48.795 3.23.322 5.23-1.406 8.313-1.39z"/>
  <path fill="#90B952" d="M197.528 312.937c-.768.925-2.28 2.594-1.787 3.76 1.522.27 2.783.06 3.257-1.326-.768-.606-.742-1.79-1.47-2.433zM191.695 317.82c.277.055.512.135.784.204.077-.23.162-.462.51-.323.032-.216.14-.502.218-.734-.24-.132-.48-.208-.32-.513-.275-.062-.564-.18-.785-.203-.125.237-.203.468-.517.272-.07.267-.135.553-.19.825.29.12.456.164.3.472zM186.514 318.284c.847.85 1.4 1.897 3.332 2.035-.425-1.142-1.875-3.383-3.332-2.036zM151.21 365.72c2.327-.553 6.333 1.814 8.596 1.23-2.983-.194-7.13-5.347-8.597-1.23zM147.06 365.58c.507-1.432.063-2.31-.02-3.365-.405-.12-.79-.2-1.175-.288-.61.357-1.585 2.983-.885 3.57.13-.86 1.45.2 2.08.084zM133.934 366.2c.732-1.07-.635-3.384-1.484-4.55-.798 1.496-2.402 1.61-2.637 4 1.55.514 2.398-.183 4.12.55zM137.025 365.287c.87.946 2.723-.12 4.203.166-.038-1.837-.228-3.514-.926-4.878-1.92.266-2.82 2.054-3.277 4.712zM124.77 364.025c-.067.74-1.647 1.723-.615 2.346.215-.428.74-.24 1.308-.067.098-.954.013-1.85-.694-2.278zM116.245 367.89c1.52.116 2.58-.586 3.965-.743-.24-1.2-.097-2.627-1.33-3.247-1.263.505-3.374 1.88-2.635 3.99z"/>
  <g fill="#F9AA2B">
    <path d="M236.78 371.936c-.86.952-2.208 1.243-2.767 2.655 2.13.736 3.347 3.823 4.954 3.713-1.452-1.63-.623-4.724-2.188-6.367zM225.06 380.44c-.743.86-2.157.603-2.6 1.932 2.708.903 3.68 4.526 6.136 4.345-1.48-1.872-2.038-4.35-3.535-6.276zM216.933 384.426c-1.225-.004-2.43.083-3.133.93 1.015 1.52 1.757 3.163 3.12 4.52.543-3.355-.312-2.37.013-5.45zM207.232 386.27c-.846.698-2.12.55-3.123.93-.072 1.665 1.08 2.513 2.106 3.462.792-1.487 1.235-3.118 1.016-4.39zM195.94 387.773c-.397 1.15-1.996.347-2.733 1.047 1.39 1.596 1.102 4.304 2.836 5.676.99-1.49.644-5.073-.104-6.723zM182.604 384.145c-1.77-.708-6.52-4.128-8.423-3.658.108 1.25 1.266.57 1.413 1.18-.58-.06-.666.784-1.112.986 1.952 2.994 2.55 6.85 5.383 9.252.396-3.816.693-4.632 2.74-7.76zM167.018 377.096c-1.95-.185-4.65-1.705-6.073-1.038 1.53 1.86 2.168 6.165 3.86 6.782-.66-1.062 1.152-4.166 2.213-5.744zM143.907 373.644c.718 2.02.84 4.438 3.294 5.38.723-2.34 1.463-3.554 2.034-4.922-2.033-.563-3.308.058-5.327-.458zM135.24 372.844c-1.093-.362-4.005-1.15-4.626-1.462-.022-.045-.022-.045-.03-.09-.16-.008-.095.02.03.09.937 2.103.947 4.765 3.14 6.147-.02-1.632 1.104-3.18 1.486-4.686zM115.437 374.817c1.886 1.225 2.74 3.04 4.415 4.394.394-1.46 1.828-5.828.68-6.523-1.437 1.084-3.605 1.026-5.095 2.13z"/>
  </g>
  <path fill="#90B952" d="M128.302 410.68c3.684 4.844 8.32 3.793 14.775 3.167 5.592-.612 13.735-2.82 19.29-3.393 17.192-1.792 32.43 4.957 49.206 8.787 29.3 6.66 49.953-.513 57.87-27.705 2.794-9.476-1.376-19.38 1.67-29.494.39-1.465.96-4.413 4.343-4.4-1.51 3.977.176 7.74 1.627 10.897 2.085-6.624 4.486-12.284 6.562-16.908-.163.457-.635.415-.666 1.096-7.514 4.457-19.407-1.034-27.332 3.56-11.188 6.38-17.328 14.232-12.392 27.273-.36.013-.602.203-.592.71-4.452.17-6.557-3.29-9.8-4.896.23 4.954 1.8 9.1 3.606 13.064-3.86 3.372-9.48-2.02-14.42-3.016-.707 3.153.332 5.217.225 8.02-5.53 3.453-7.623-5.282-11.312-7.31-1.456 4.164.25 9.236-1.012 13.19-6.022.39-5.845-9.26-9.147-9.3-.175 3.538-.317 5.13-.352 8.31-8.083 2.688-10.554-8.282-13.206-13.246-2.562 3.91-2.247 10.365-2.637 14.488-7.757-.686-8.006-11.478-13.442-15.85-1.154 4.13-.436 5.684-1.383 9.382-7.042.253-11.656-16.495-15.304-22.15-3.552 2.744-3.497 9.178-6.624 11.847-.555.33-1.51.08-2.415-.184-1.94-3.104-4.53-7.588-7.09-9.277-1.988 4.4-.24 8.345-1.87 11.343-5.485-.93-6.803-7.318-10.008-10.822-.95 3.183-.453 11.11-4.546 11.938-2.02-1.797-2.66-6.252-5.613-6.366 5.605 6.016 6.47 20.086 11.99 27.245z"/>
  <g fill="#FDE06A">
    <path d="M85.47 165.303v-12.367h-4.43v-2.258h11.424v2.258h-4.43v12.367H85.47zM101.737 165.303v-6.666c0-1.644-.855-2.148-2.15-2.148-1.16 0-2.17.7-2.718 1.424v7.39h-2.303v-14.626h2.302v5.48c.7-.832 2.082-1.71 3.75-1.71 2.28 0 3.42 1.185 3.42 3.356v7.5h-2.303zM106.362 159.997c0-3.07 2.237-5.548 5.372-5.548 3.18 0 5.22 2.433 5.22 5.766v.548h-8.18c.175 1.6 1.38 2.917 3.377 2.917 1.03 0 2.26-.416 3.005-1.16l1.052 1.512c-1.052 1.01-2.61 1.535-4.297 1.535-3.18 0-5.548-2.216-5.548-5.57zm5.372-3.663c-1.973 0-2.872 1.513-2.982 2.807h5.964c-.043-1.248-.898-2.806-2.982-2.806zM124.274 158c0-4.362 3.092-7.563 7.477-7.563s7.478 3.2 7.478 7.564c0 4.365-3.092 7.566-7.477 7.566s-7.476-3.2-7.476-7.565zm12.323 0c0-3.025-1.907-5.283-4.846-5.283-2.96 0-4.845 2.258-4.845 5.284 0 3.005 1.886 5.286 4.846 5.286 2.94 0 4.847-2.28 4.847-5.285zM148.787 165.303v-6.622c0-1.644-.833-2.19-2.127-2.19-1.184 0-2.192.7-2.72 1.424v7.39h-2.3V154.71h2.3v1.447c.703-.834 2.062-1.71 3.73-1.71 2.28 0 3.42 1.227 3.42 3.398v7.455h-2.303zM154.07 165.303v-14.625h2.302v14.625h-2.302zM159.068 151.993c0-.79.658-1.425 1.425-1.425.79 0 1.425.636 1.425 1.425s-.636 1.425-1.425 1.425c-.767 0-1.425-.635-1.425-1.425zm.286 13.31v-10.59h2.302v10.59h-2.302zM171.785 165.303v-6.622c0-1.644-.833-2.19-2.127-2.19-1.184 0-2.192.7-2.72 1.424v7.39h-2.3V154.71h2.3v1.447c.703-.834 2.062-1.71 3.73-1.71 2.28 0 3.42 1.227 3.42 3.398v7.455h-2.303zM176.41 159.997c0-3.07 2.237-5.548 5.372-5.548 3.18 0 5.22 2.433 5.22 5.766v.548h-8.18c.175 1.6 1.38 2.917 3.377 2.917 1.03 0 2.257-.416 3.003-1.16l1.052 1.512c-1.052 1.01-2.61 1.535-4.297 1.535-3.18 0-5.548-2.216-5.548-5.57zm5.372-3.663c-1.973 0-2.872 1.513-2.982 2.807h5.964c-.044-1.248-.9-2.806-2.982-2.806zM194.98 165.303v-14.625H205v2.258h-7.455v3.793h7.302v2.257h-7.302v6.315h-2.566zM206.577 159.997c0-3.026 2.083-5.548 5.438-5.548 3.398 0 5.46 2.52 5.46 5.547 0 3.048-2.062 5.57-5.46 5.57-3.355 0-5.438-2.523-5.438-5.57zm8.508 0c0-1.864-1.097-3.508-3.07-3.508-1.95 0-3.047 1.644-3.047 3.507 0 1.886 1.096 3.53 3.048 3.53 1.972 0 3.07-1.645 3.07-3.53zM219.8 165.303v-10.59h2.3v1.556c.79-1.01 2.063-1.8 3.444-1.8v2.282c-.198-.044-.44-.066-.724-.066-.965 0-2.26.658-2.72 1.403v7.213h-2.3zM240.387 165.303v-6.907c0-1.14-.504-1.908-1.732-1.908-1.03 0-1.995.724-2.455 1.403v7.412h-2.303v-6.907c0-1.14-.504-1.908-1.754-1.908-1.01 0-1.952.724-2.435 1.425v7.39h-2.302V154.71h2.302v1.447c.438-.658 1.842-1.71 3.443-1.71 1.58 0 2.544.79 2.895 1.952.614-.966 2.018-1.953 3.597-1.953 1.95 0 3.048 1.053 3.048 3.202v7.65h-2.303zM251.37 165.303v-14.625h7.19c2.676 0 4.167 1.666 4.167 3.728 0 1.842-1.185 3.07-2.544 3.354 1.557.24 2.83 1.798 2.83 3.596 0 2.258-1.514 3.947-4.255 3.947h-7.39zm8.727-10.46c0-1.096-.746-1.907-2.062-1.907h-4.1v3.793h4.1c1.316 0 2.062-.79 2.062-1.886zm.284 6.162c0-1.096-.766-2.017-2.235-2.017h-4.21v4.057h4.21c1.403 0 2.236-.768 2.236-2.04zM272.66 165.303V163.9c-.77.855-2.085 1.667-3.75 1.667-2.28 0-3.4-1.184-3.4-3.355v-7.5h2.303v6.667c0 1.644.834 2.148 2.127 2.148 1.162 0 2.17-.658 2.72-1.38v-7.435h2.302v10.59h-2.303zM277.656 151.993c0-.79.658-1.425 1.425-1.425.79 0 1.427.636 1.427 1.425s-.636 1.425-1.426 1.425c-.766 0-1.424-.635-1.424-1.425zm.285 13.31v-10.59h2.303v10.59h-2.302zM283.225 165.303v-14.625h2.302v14.625h-2.302zM295.964 165.303v-1.447c-.812 1.053-2.04 1.71-3.398 1.71-2.72 0-4.715-2.06-4.715-5.547 0-3.422 1.975-5.57 4.716-5.57 1.315 0 2.543.613 3.398 1.73v-5.502h2.302v14.625h-2.302zm0-3.18v-4.21c-.526-.79-1.645-1.424-2.74-1.424-1.82 0-2.982 1.468-2.982 3.53 0 2.038 1.162 3.507 2.98 3.507 1.097 0 2.216-.614 2.742-1.403zM300.59 159.997c0-3.07 2.235-5.548 5.37-5.548 3.18 0 5.22 2.433 5.22 5.766v.548H303c.177 1.6 1.383 2.917 3.378 2.917 1.03 0 2.26-.416 3.004-1.16l1.053 1.512c-1.053 1.01-2.61 1.535-4.298 1.535-3.18 0-5.548-2.216-5.548-5.57zm5.37-3.663c-1.973 0-2.87 1.513-2.98 2.807h5.964c-.045-1.248-.9-2.806-2.983-2.806zM313.46 165.303v-10.59h2.3v1.556c.79-1.01 2.063-1.8 3.444-1.8v2.282c-.198-.044-.44-.066-.724-.066-.965 0-2.26.658-2.72 1.403v7.213h-2.3z"/>
  </g>
  <text transform="translate(134.142 285.127)" class="text-1">
    Fast.
  </text>
  <text transform="translate(112 285.127)" class="text-2">
    Smart.
  </text>
  <text transform="translate(39 285.127)" class="text-3">
    Formidable.
  </text>
</svg>